<svg width="100" height="100" viewBox="0 0 100 100" fill="none" xmlns="http://www.w3.org/2000/svg">
<path fill-rule="evenodd" clip-rule="evenodd" d="M43.7279 0.389587C36.4288 1.3031 29.6187 3.78998 23.6479 7.5C19.6595 9.97827 16.0457 13.0023 12.9106 16.4677C12.9697 16.9702 13 17.4816 13 18C13 23.7844 9.22211 28.6864 3.99915 30.3733C1.42487 36.399 0 43.0331 0 50C0 56.5294 1.25153 62.7664 3.52783 68.4844C8.99329 70.0219 13 75.043 13 81C13 81.8159 12.9249 82.6143 12.7811 83.3885C20.1163 91.5599 30.1035 97.3021 41.3884 99.2612C43.6817 97.2318 46.697 96 50 96C53.303 96 56.3183 97.2318 58.6116 99.2612C65.0275 98.1474 71.024 95.8107 76.3521 92.5C80.3956 89.9875 84.0541 86.9141 87.2189 83.3885C87.0751 82.6143 87 81.8159 87 81C87 75.043 91.0067 70.0219 96.4722 68.4844C98.7485 62.7664 100 56.5294 100 50C100 43.0331 98.5751 36.399 96.0009 30.3733C90.7779 28.6864 87 23.7844 87 18C87 17.4816 87.0303 16.9702 87.0894 16.4677C83.9543 13.0023 80.3405 9.97827 76.3521 7.5C70.3813 3.78998 63.5712 1.3031 56.2721 0.389587C54.4124 1.41589 52.2744 2 50 2C47.7256 2 45.5876 1.41589 43.7279 0.389587ZM48 25C48 32.1797 42.1797 38 35 38C27.8203 38 22 32.1797 22 25C22 17.8203 27.8203 12 35 12C42.1797 12 48 17.8203 48 25ZM66 88C73.1797 88 79 82.1797 79 75C79 67.8203 73.1797 62 66 62C58.8203 62 53 67.8203 53 75C53 82.1797 58.8203 88 66 88ZM94 49C94 56.1797 88.1797 62 81 62C73.8203 62 68 56.1797 68 49C68 41.8203 73.8203 36 81 36C88.1797 36 94 41.8203 94 49ZM66 38C73.1797 38 79 32.1797 79 25C79 17.8203 73.1797 12 66 12C58.8203 12 53 17.8203 53 25C53 32.1797 58.8203 38 66 38ZM48 75C48 82.1797 42.1797 88 35 88C27.8203 88 22 82.1797 22 75C22 67.8203 27.8203 62 35 62C42.1797 62 48 67.8203 48 75ZM20 62C27.1797 62 33 56.1797 33 49C33 41.8203 27.1797 36 20 36C12.8203 36 7 41.8203 7 49C7 56.1797 12.8203 62 20 62Z" fill="#FF0000" fill-opacity="0.62"/>
</svg>
